<?xml version="1.0" encoding="UTF-8" standalone="no"?>
<!DOCTYPE svg PUBLIC "-//W3C//DTD SVG 1.1//EN" "http://www.w3.org/Graphics/SVG/1.1/DTD/svg11.dtd">
<svg xmlns="http://www.w3.org/2000/svg" version="1.1" viewBox="0.00 0.00 400.00 246.00">
<g stroke-width="2.00" fill="none" stroke-linecap="butt">
<path stroke="#ec9627" vector-effect="non-scaling-stroke" d="
  M 51.45 58.55
  A 0.33 0.33 0.0 0 1 51.77 59.05
  C 46.36 67.75 32.63 92.40 50.49 97.33
  C 55.85 98.80 59.89 96.40 60.31 90.75
  C 60.61 86.69 59.33 83.23 56.95 79.95
  C 52.88 74.36 55.02 68.25 56.88 62.37
  Q 58.08 58.59 60.60 56.09
  Q 66.72 50.01 70.88 45.19
  Q 71.26 44.75 70.69 44.82
  Q 50.16 47.18 35.60 60.51
  C 11.00 83.03 10.41 120.38 20.72 149.56
  Q 31.45 179.92 54.22 202.62
  Q 54.52 202.93 54.52 202.49
  L 54.44 191.61
  Q 54.44 191.20 54.21 190.86
  Q 49.99 184.55 48.08 177.25
  Q 47.46 174.86 46.31 173.04
  C 43.69 168.87 41.86 165.80 42.14 160.24
  Q 42.25 158.16 42.23 156.82
  Q 42.22 156.24 41.65 156.15
  C 37.63 155.47 33.91 152.61 33.66 148.34
  C 33.40 144.00 37.75 140.37 41.80 142.75
  Q 42.82 143.34 42.03 142.47
  C 36.70 136.62 32.45 129.36 36.78 121.18
  C 38.83 117.32 41.99 113.98 37.34 110.16
  C 30.53 104.56 19.42 98.09 24.36 87.12
  C 26.12 83.23 28.49 80.81 32.22 76.55
  Q 40.60 66.99 50.52 59.01
  Q 51.02 58.61 51.45 58.55"
/>
<path stroke="#ec9627" vector-effect="non-scaling-stroke" d="
  M 86.43 79.87
  C 85.42 67.14 90.72 56.96 98.21 47.40
  Q 98.99 46.40 97.74 46.16
  L 89.56 44.64
  A 2.08 2.07 21.2 0 0 87.40 45.59
  C 83.79 51.37 79.11 56.38 74.09 61.21
  C 70.41 64.74 69.12 67.93 72.33 72.23
  C 75.36 76.29 81.18 78.83 85.85 80.33
  A 0.45 0.44 -83.1 0 0 86.43 79.87"
/>
<path stroke="#f1a028" vector-effect="non-scaling-stroke" d="
  M 128.99 88.53
  C 138.97 95.39 146.43 103.75 150.64 115.03
  Q 150.85 115.59 151.43 115.74
  L 177.49 122.76
  A 0.98 0.98 0.0 0 0 178.46 122.48
  L 183.59 116.96
  A 1.00 0.99 52.7 0 0 183.74 115.83
  Q 170.28 90.04 148.12 71.48"
/>
<path stroke="#ec9627" vector-effect="non-scaling-stroke" d="
  M 148.12 71.48
  Q 129.44 55.76 106.40 48.33
  A 0.62 0.60 -71.4 0 0 105.64 48.72
  C 103.09 55.99 101.40 67.35 106.46 73.96
  Q 108.18 76.21 113.28 79.05
  Q 121.33 83.52 128.99 88.53"
/>
<path stroke="#e64c2b" vector-effect="non-scaling-stroke" d="
  M 148.12 71.48
  Q 147.34 71.86 146.86 72.35
  Q 146.64 72.57 146.92 72.71
  Q 147.16 72.83 147.12 73.17
  A 0.24 0.23 77.6 0 1 147.01 73.35
  Q 145.97 74.07 145.59 74.49
  A 0.23 0.23 0.0 0 0 145.79 74.88
  Q 146.03 74.85 146.24 74.98
  A 0.60 0.59 53.5 0 1 146.08 76.07
  Q 144.82 76.38 143.75 75.77
  Q 143.37 75.56 143.37 76.00
  L 143.37 77.53
  Q 143.37 77.97 143.79 77.89
  Q 144.05 77.84 144.14 77.56
  Q 144.36 76.88 144.73 77.49
  Q 145.01 77.94 144.78 78.42
  Q 144.58 78.84 144.11 78.88
  Q 143.17 78.94 143.12 79.42
  A 1.65 1.45 -74.1 0 1 140.97 80.80
  Q 140.52 80.56 140.08 81.18
  Q 139.91 81.43 140.13 81.63
  Q 140.53 82.00 141.00 82.14
  Q 141.72 82.35 141.14 82.84
  Q 140.85 83.09 140.75 83.46
  Q 140.58 84.07 140.13 83.62
  L 139.78 83.27
  Q 139.69 83.18 139.57 83.22
  Q 139.32 83.29 139.37 83.51
  Q 139.39 83.62 139.72 84.05
  Q 139.87 84.25 139.92 84.66
  A 0.45 0.45 0.0 0 1 139.19 85.07
  Q 138.89 84.82 138.51 84.85
  Q 138.16 84.88 138.13 85.24
  Q 138.09 85.62 137.88 85.95
  Q 137.53 86.51 137.17 85.95
  L 136.87 85.49
  Q 136.51 84.94 136.07 85.42
  Q 135.53 86.02 134.92 85.59
  Q 134.50 85.28 134.16 85.68
  Q 133.69 86.25 133.91 87.02
  Q 133.94 87.13 132.94 88.68
  Q 131.95 90.20 130.53 89.33
  Q 130.29 89.18 130.45 88.94
  Q 130.55 88.80 130.59 88.65
  Q 130.68 88.33 130.36 88.41
  Q 129.65 88.60 128.99 88.53"
/>
<path stroke="#ca8623" vector-effect="non-scaling-stroke" d="
  M 47.76 138.05
  Q 46.15 142.49 46.01 144.00
  Q 45.67 147.79 44.99 151.12
  Q 44.87 151.69 44.29 151.63
  L 42.73 151.47
  Q 42.11 151.40 42.33 150.81
  C 44.37 145.41 37.69 141.91 36.53 146.51
  C 35.18 151.86 39.83 153.57 44.27 153.95
  Q 44.83 154.00 44.80 154.56
  C 44.46 161.08 44.17 166.00 48.24 171.72
  C 52.11 177.16 51.45 183.75 56.30 188.94
  A 2.71 2.71 0.0 0 1 57.02 190.97
  Q 56.29 201.74 58.72 212.24
  C 59.92 217.46 65.68 216.16 69.44 215.96
  A 1.24 1.23 -25.6 0 0 70.20 213.81
  C 68.34 212.13 66.86 210.42 66.76 207.70
  C 66.60 203.65 67.40 199.68 66.96 195.65
  C 65.91 186.18 77.48 183.64 77.46 175.24
  C 77.45 171.57 79.95 171.39 82.79 172.35
  Q 88.51 174.28 93.00 174.90
  C 107.26 176.84 123.56 177.34 138.53 174.67
  C 141.98 174.05 145.33 178.34 147.27 180.65
  C 151.04 185.14 151.54 190.96 154.80 195.78
  C 155.79 197.24 157.56 199.11 157.32 201.01
  Q 157.05 203.21 155.86 207.41
  A 0.82 0.80 36.9 0 0 155.96 208.07
  L 160.44 215.14
  Q 160.81 215.71 161.49 215.69
  L 171.95 215.33
  A 0.44 0.44 0.0 0 0 172.28 214.63
  C 169.69 211.17 166.17 207.47 166.07 202.86
  C 166.03 201.26 165.27 199.83 165.23 198.51
  C 165.03 190.84 166.18 180.85 171.88 174.81
  C 174.61 171.90 175.73 170.06 176.98 166.72
  A 0.34 0.34 0.0 0 1 177.54 166.60
  C 181.42 170.38 189.43 174.55 194.63 170.88
  Q 200.07 167.05 205.07 161.56
  Q 206.14 160.38 207.93 161.32
  A 1.64 1.53 -31.0 0 0 208.73 161.49
  Q 210.75 161.37 211.64 159.63
  A 1.53 1.51 -76.7 0 1 212.98 158.79
  L 218.23 158.69
  A 1.76 1.76 0.0 0 0 219.86 157.48
  Q 221.67 151.93 220.01 146.22
  A 1.08 1.07 80.4 0 0 218.93 145.45
  Q 211.53 145.76 207.21 140.51
  Q 206.58 139.74 205.01 136.19
  Q 202.93 131.49 197.78 129.81
  C 196.41 129.36 194.78 129.50 193.34 128.99
  A 2.15 2.15 0.0 0 1 192.20 125.89
  L 193.25 124.09
  Q 193.51 123.64 193.36 123.14
  L 191.02 115.23
  A 0.64 0.63 60.4 0 0 189.98 114.94
  C 187.51 117.21 184.69 119.16 182.56 121.70
  Q 180.98 123.59 179.51 125.47
  A 0.80 0.78 26.9 0 1 178.65 125.74
  Q 158.94 119.85 138.82 115.65"
/>
<path stroke="#f7c424" vector-effect="non-scaling-stroke" d="
  M 138.82 115.65
  Q 137.69 101.38 126.51 92.75
  A 0.50 0.49 15.4 0 0 125.71 93.20
  C 126.09 96.11 120.97 96.14 119.27 95.92
  C 114.19 95.26 113.45 91.59 114.30 87.12
  A 1.25 1.25 0.0 0 0 114.06 86.11
  Q 112.74 84.39 110.11 83.38
  Q 99.02 79.12 95.25 78.01
  Q 94.65 77.83 94.27 77.96
  A 0.49 0.49 0.0 0 0 94.18 78.84
  Q 98.89 81.63 103.47 84.31
  C 108.99 87.54 98.95 93.69 96.66 95.34
  A 1.05 1.05 0.0 0 0 96.81 97.14
  L 98.91 98.16
  A 1.57 1.57 0.0 0 1 99.53 100.43
  C 93.17 110.06 80.05 99.03 90.86 94.61
  Q 91.57 94.32 91.00 93.80
  C 87.38 90.45 83.79 86.52 79.14 84.52
  Q 77.29 83.73 78.58 85.27
  C 80.21 87.21 85.26 92.36 83.29 95.25
  C 81.46 97.95 77.38 95.81 75.42 94.36
  A 0.79 0.79 0.0 0 0 74.20 94.73
  C 73.63 96.35 72.34 99.29 70.41 99.56
  Q 69.64 99.66 69.51 98.90
  Q 68.63 93.75 68.18 88.74
  Q 68.06 87.45 67.07 87.99
  A 0.73 0.70 89.1 0 0 66.77 88.31
  Q 65.01 92.16 64.08 95.95
  C 62.44 102.67 67.99 102.07 69.88 106.35
  Q 71.34 109.67 68.81 111.84
  C 67.56 112.90 65.83 112.46 65.16 111.08
  C 63.70 108.09 66.94 105.05 61.52 103.39
  Q 61.06 103.25 60.82 103.67
  Q 58.88 107.16 55.27 107.22
  C 50.48 107.30 46.28 102.67 42.83 100.00
  Q 42.24 99.54 42.28 100.29
  C 42.56 105.33 46.70 108.63 50.36 111.49
  C 53.16 113.67 52.80 115.25 50.57 117.58
  C 48.39 119.85 46.65 117.52 45.40 115.98
  Q 44.82 115.27 44.79 116.18
  C 44.75 117.21 45.21 118.16 45.15 119.11
  Q 44.75 125.43 44.44 131.75
  Q 44.20 136.51 47.76 138.05"
/>
<path stroke="#ca6023" vector-effect="non-scaling-stroke" d="
  M 138.82 115.65
  Q 127.44 112.88 120.72 112.63
  C 101.99 111.93 57.08 117.39 47.76 138.05"
/>
<path stroke="#f1a028" vector-effect="non-scaling-stroke" d="
  M 69.17 207.50
  C 69.14 211.53 75.23 212.53 72.27 217.00
  Q 71.99 217.43 72.41 217.73
  C 90.77 230.75 114.39 239.60 136.75 237.95
  C 168.42 235.61 191.33 214.11 195.75 182.71
  Q 196.47 177.62 197.02 172.65
  A 0.27 0.27 0.0 0 0 196.57 172.42
  C 191.68 176.78 183.32 174.10 178.71 170.73
  Q 178.21 170.37 177.89 170.90
  L 175.72 174.57
  Q 175.44 175.04 175.00 175.35
  C 169.15 179.45 167.91 190.31 167.74 196.79
  C 167.69 198.75 168.35 200.53 168.58 202.55
  C 169.05 206.64 171.82 210.00 174.22 213.13
  A 2.85 2.84 67.7 0 1 172.32 217.69
  Q 167.81 218.25 162.50 218.38
  C 158.38 218.49 155.74 212.93 154.11 209.58
  C 152.28 205.82 156.50 201.86 153.90 198.77
  C 150.21 194.38 149.64 189.29 147.29 185.27
  Q 144.50 180.50 140.14 177.05
  A 1.23 1.23 0.0 0 0 139.09 176.82
  Q 131.28 178.71 123.08 178.91
  Q 106.60 179.31 90.33 176.79
  Q 85.53 176.04 81.14 174.26
  A 0.87 0.86 11.7 0 0 79.95 175.04
  C 79.87 178.24 79.29 180.57 76.95 183.03
  C 73.59 186.55 69.11 190.15 69.26 195.54
  C 69.40 200.31 69.19 203.46 69.17 207.50"
/>
<path stroke="#ca8623" vector-effect="non-scaling-stroke" d="
  M 263.36 138.03
  A 0.48 0.48 0.0 0 1 263.83 137.55
  C 271.49 137.48 281.74 136.92 282.80 126.93
  Q 283.18 123.31 282.73 121.73
  Q 280.76 114.90 273.68 113.72
  Q 270.96 113.26 268.22 112.89
  C 263.97 112.30 259.85 112.93 255.68 113.60
  Q 255.13 113.69 255.13 114.25
  L 255.13 149.18
  A 0.55 0.55 0.0 0 0 255.68 149.73
  L 262.97 149.73
  Q 263.41 149.73 263.41 149.28
  L 263.36 138.03"
/>
<path stroke="#ca8623" vector-effect="non-scaling-stroke" d="
  M 295.14 140.20
  Q 294.07 138.50 296.08 138.50
  L 310.97 138.50
  Q 312.85 138.50 312.65 136.63
  C 311.89 129.81 311.29 123.32 303.25 121.75
  C 294.09 119.97 287.73 124.84 286.50 133.66
  Q 285.79 138.70 287.67 142.83
  C 291.57 151.40 302.31 151.82 310.05 149.04
  A 1.12 1.12 0.0 0 0 310.77 147.80
  L 309.92 143.00
  Q 309.77 142.14 308.95 142.44
  Q 304.13 144.19 299.05 143.20
  Q 296.74 142.75 295.49 140.76
  L 295.14 140.20"
/>
<path stroke="#ca8623" vector-effect="non-scaling-stroke" d="
  M 326.80 128.49
  L 334.99 128.56
  A 0.56 0.55 0.0 0 0 335.55 128.01
  L 335.58 122.52
  A 0.56 0.55 -0.0 0 0 335.02 121.97
  L 326.82 121.93
  A 0.61 0.60 -89.5 0 1 326.23 121.32
  L 326.26 114.02
  Q 326.26 113.79 326.03 113.83
  L 318.62 114.86
  Q 318.28 114.91 318.28 115.25
  C 318.25 123.81 318.00 132.41 318.48 140.92
  C 319.07 151.30 328.93 151.63 336.45 149.06
  A 0.43 0.42 -15.0 0 0 336.73 148.58
  L 335.62 143.08
  Q 335.56 142.76 335.26 142.87
  C 333.00 143.64 326.91 144.59 326.45 140.76
  Q 325.94 136.48 326.36 128.91
  Q 326.39 128.49 326.80 128.49"
/>
<path stroke="#ca8623" vector-effect="non-scaling-stroke" d="
  M 349.22 138.50
  L 364.73 138.51
  Q 365.49 138.51 365.54 137.75
  C 365.94 131.53 364.53 123.98 357.53 121.95
  C 347.77 119.12 340.07 125.30 339.52 135.14
  C 339.42 136.91 339.89 138.73 340.25 140.52
  C 341.06 144.52 343.48 147.66 347.25 149.20
  C 352.45 151.34 357.17 150.36 362.54 149.42
  Q 363.94 149.18 363.78 147.76
  L 363.30 143.49
  Q 363.13 142.03 361.75 142.53
  Q 357.29 144.13 352.56 143.27
  Q 350.26 142.86 348.87 141.00
  L 348.33 140.28
  Q 346.99 138.50 349.22 138.50"
/>
<path stroke="#ca8623" vector-effect="non-scaling-stroke" d="
  M 197.00 138.87
  Q 196.23 139.13 195.96 139.85
  A 0.72 0.72 0.0 0 0 196.81 140.80
  L 200.51 139.83
  A 0.95 0.95 0.0 0 0 200.81 138.13
  Q 199.21 137.02 197.73 138.43
  Q 197.41 138.73 197.00 138.87"
/>
<path stroke="#ca8623" vector-effect="non-scaling-stroke" d="
  M 37.35 147.63
  Q 37.26 149.84 39.43 151.20
  Q 40.35 151.77 40.80 150.79
  Q 41.59 149.10 41.17 147.32
  A 1.97 1.97 0.0 0 0 39.22 145.81
  Q 37.42 145.85 37.35 147.63"
/>
<path stroke="#ca8623" vector-effect="non-scaling-stroke" d="
  M 263.39 120.26
  L 263.39 129.88
  A 0.50 0.50 0.0 0 0 263.89 130.38
  L 267.74 130.38
  A 6.67 4.87 0.0 0 0 274.41 125.51
  L 274.41 124.63
  A 6.67 4.87 -0.0 0 0 267.74 119.76
  L 263.89 119.76
  A 0.50 0.50 0.0 0 0 263.39 120.26"
/>
<path stroke="#ca8623" vector-effect="non-scaling-stroke" d="
  M 380.29 128.25
  L 387.45 128.55
  Q 388.51 128.59 388.73 127.56
  L 389.63 123.33
  Q 389.89 122.14 388.68 121.93
  Q 380.19 120.47 372.07 123.30
  A 0.72 0.72 0.0 0 0 371.59 123.98
  L 371.56 149.00
  Q 371.56 149.69 372.25 149.70
  L 378.90 149.74
  Q 379.55 149.74 379.55 149.10
  L 379.55 128.97
  Q 379.55 128.22 380.29 128.25"
/>
<path stroke="#ca8623" vector-effect="non-scaling-stroke" d="
  M 294.88 133.13
  L 304.50 132.97
  A 0.22 0.22 0.0 0 0 304.71 132.74
  L 304.71 132.66
  A 4.96 4.93 89.0 0 0 299.69 127.79
  L 299.49 127.79
  A 4.96 4.93 89.0 0 0 294.65 132.84
  L 294.65 132.92
  A 0.22 0.22 0.0 0 0 294.88 133.13"
/>
<path stroke="#ca8623" vector-effect="non-scaling-stroke" d="
  M 348.05 133.06
  L 357.71 133.00
  A 0.17 0.17 0.0 0 0 357.88 132.83
  L 357.88 132.75
  A 4.97 4.95 89.7 0 0 352.91 127.81
  L 352.81 127.81
  A 4.97 4.95 89.7 0 0 347.88 132.81
  L 347.88 132.89
  A 0.17 0.17 0.0 0 0 348.05 133.06"
/>
<path stroke="#ca8623" vector-effect="non-scaling-stroke" d="
  M 374.32 204.88
  C 388.51 201.43 392.57 183.78 388.13 171.81
  C 382.28 156.04 361.11 152.64 349.72 164.30
  C 342.53 171.67 341.53 185.53 346.06 194.46
  Q 351.02 204.23 362.59 205.69
  A 0.77 0.75 -2.7 0 1 363.23 206.26
  C 365.50 215.54 375.67 217.58 384.12 217.61
  Q 384.65 217.61 384.80 217.09
  L 386.64 210.73
  Q 386.76 210.32 386.34 210.22
  C 381.59 209.08 378.46 209.84 373.97 206.66
  A 1.00 1.00 0.0 0 1 374.32 204.88"
/>
<path stroke="#ca8623" vector-effect="non-scaling-stroke" d="
  M 284.98 179.27
  C 289.99 176.21 290.89 169.61 288.04 164.96
  C 285.94 161.54 281.93 159.31 277.99 158.75
  Q 267.27 157.22 255.66 159.15
  Q 255.13 159.23 255.13 159.76
  L 255.11 203.96
  Q 255.11 204.45 255.60 204.54
  C 264.33 206.04 276.39 207.04 284.67 203.17
  C 292.23 199.62 294.42 188.28 288.60 182.48
  C 287.58 181.46 286.03 181.16 284.89 180.06
  Q 284.43 179.61 284.98 179.27"
/>
<path stroke="#ca8623" vector-effect="non-scaling-stroke" d="
  M 329.98 179.44
  Q 333.72 177.05 334.42 173.75
  C 336.07 166.04 330.88 159.67 322.99 158.69
  Q 311.89 157.31 300.77 159.13
  Q 300.25 159.22 300.25 159.74
  L 300.25 203.77
  Q 300.25 204.37 300.84 204.49
  C 310.73 206.36 334.42 208.72 336.57 193.98
  Q 337.24 189.35 336.49 187.00
  C 335.14 182.84 333.01 182.08 329.98 180.12
  Q 329.45 179.78 329.98 179.44"
/>
<path stroke="#ca8623" vector-effect="non-scaling-stroke" d="
  M 377.75 175.23
  C 375.72 167.77 367.77 164.78 361.01 168.06
  C 354.28 171.32 353.33 181.66 355.15 188.04
  C 357.25 195.43 364.67 198.58 371.47 195.73
  C 379.13 192.52 379.67 182.26 377.75 175.23"
/>
<path stroke="#ca8623" vector-effect="non-scaling-stroke" d="
  M 265.36 167.24
  L 265.38 176.02
  A 0.71 0.71 0.0 0 0 266.09 176.73
  L 272.32 176.72
  A 7.06 4.83 -0.1 0 0 279.37 171.88
  L 279.37 171.34
  A 7.06 4.83 -0.1 0 0 272.30 166.52
  L 266.07 166.53
  A 0.71 0.71 0.0 0 0 265.36 167.24"
/>
<path stroke="#ca8623" vector-effect="non-scaling-stroke" d="
  M 265.34 185.68
  L 265.38 196.20
  A 0.91 0.91 0.0 0 0 266.29 197.10
  L 272.21 197.08
  A 8.95 5.91 -0.2 0 0 281.14 191.14
  L 281.14 190.62
  A 8.95 5.91 -0.2 0 0 272.17 184.74
  L 266.25 184.76
  A 0.91 0.91 0.0 0 0 265.34 185.68"
/>
<path stroke="#ca8623" vector-effect="non-scaling-stroke" d="
  M 310.48 167.17
  L 310.52 176.13
  A 0.62 0.62 0.0 0 0 311.14 176.75
  L 317.28 176.73
  A 7.22 4.58 -0.2 0 0 324.48 172.13
  L 324.48 171.09
  A 7.22 4.58 -0.2 0 0 317.24 166.53
  L 311.10 166.55
  A 0.62 0.62 0.0 0 0 310.48 167.17"
/>
<path stroke="#ca8623" vector-effect="non-scaling-stroke" d="
  M 310.50 185.54
  L 310.50 196.30
  A 0.77 0.77 0.0 0 0 311.27 197.07
  L 317.47 197.07
  A 8.77 5.62 0.0 0 0 326.24 191.45
  L 326.24 190.39
  A 8.77 5.62 0.0 0 0 317.47 184.77
  L 311.27 184.77
  A 0.77 0.77 0.0 0 0 310.50 185.54"
/>
</g>
<path fill="#f7ea24" d="
  M 187.89 113.63
  C 189.29 112.82 190.17 111.33 191.99 112.60
  Q 192.75 113.13 193.21 114.60
  C 194.14 117.62 196.74 123.38 194.84 126.15
  Q 194.48 126.67 195.10 126.80
  Q 202.07 128.24 205.60 132.61
  Q 206.10 133.23 207.65 136.84
  C 210.11 142.56 214.71 142.76 220.28 143.48
  A 2.03 2.03 0.0 0 1 221.94 144.79
  Q 224.79 152.38 221.34 159.61
  A 1.45 1.45 0.0 0 1 220.48 160.36
  Q 217.95 161.15 214.52 160.97
  Q 213.57 160.91 212.88 161.68
  C 211.30 163.43 209.57 164.21 207.22 163.39
  Q 206.77 163.23 206.44 163.57
  L 201.45 168.74
  A 0.91 0.90 -21.6 0 0 201.20 169.31
  C 200.98 172.19 201.08 175.39 200.84 177.91
  C 197.17 216.44 169.11 243.17 130.20 242.35
  C 109.05 241.91 86.22 233.34 69.58 220.87
  Q 67.11 219.02 64.76 218.69
  Q 61.24 218.19 61.05 218.11
  C 56.10 215.96 57.26 211.41 54.01 208.23
  C 28.68 183.47 11.68 152.34 10.34 116.75
  C 8.83 76.75 32.27 43.50 73.89 40.19
  A 1.32 1.32 0.0 0 0 74.81 39.72
  C 81.91 31.26 81.52 17.37 77.21 7.53
  Q 76.59 6.11 76.58 4.57
  Q 76.58 3.95 76.96 4.44
  C 84.01 13.46 95.82 27.79 90.56 39.35
  Q 90.06 40.45 91.25 40.66
  L 100.51 42.30
  Q 101.78 42.52 102.48 41.43
  C 104.82 37.71 107.54 34.51 110.82 30.88
  Q 111.50 30.13 111.20 31.09
  L 107.31 43.61
  A 0.53 0.52 17.6 0 0 107.65 44.26
  C 142.46 55.62 170.36 81.24 187.22 113.44
  Q 187.46 113.88 187.89 113.63
  Z
  M 51.45 58.55
  A 0.33 0.33 0.0 0 1 51.77 59.05
  C 46.36 67.75 32.63 92.40 50.49 97.33
  C 55.85 98.80 59.89 96.40 60.31 90.75
  C 60.61 86.69 59.33 83.23 56.95 79.95
  C 52.88 74.36 55.02 68.25 56.88 62.37
  Q 58.08 58.59 60.60 56.09
  Q 66.72 50.01 70.88 45.19
  Q 71.26 44.75 70.69 44.82
  Q 50.16 47.18 35.60 60.51
  C 11.00 83.03 10.41 120.38 20.72 149.56
  Q 31.45 179.92 54.22 202.62
  Q 54.52 202.93 54.52 202.49
  L 54.44 191.61
  Q 54.44 191.20 54.21 190.86
  Q 49.99 184.55 48.08 177.25
  Q 47.46 174.86 46.31 173.04
  C 43.69 168.87 41.86 165.80 42.14 160.24
  Q 42.25 158.16 42.23 156.82
  Q 42.22 156.24 41.65 156.15
  C 37.63 155.47 33.91 152.61 33.66 148.34
  C 33.40 144.00 37.75 140.37 41.80 142.75
  Q 42.82 143.34 42.03 142.47
  C 36.70 136.62 32.45 129.36 36.78 121.18
  C 38.83 117.32 41.99 113.98 37.34 110.16
  C 30.53 104.56 19.42 98.09 24.36 87.12
  C 26.12 83.23 28.49 80.81 32.22 76.55
  Q 40.60 66.99 50.52 59.01
  Q 51.02 58.61 51.45 58.55
  Z
  M 86.43 79.87
  C 85.42 67.14 90.72 56.96 98.21 47.40
  Q 98.99 46.40 97.74 46.16
  L 89.56 44.64
  A 2.08 2.07 21.2 0 0 87.40 45.59
  C 83.79 51.37 79.11 56.38 74.09 61.21
  C 70.41 64.74 69.12 67.93 72.33 72.23
  C 75.36 76.29 81.18 78.83 85.85 80.33
  A 0.45 0.44 -83.1 0 0 86.43 79.87
  Z
  M 128.99 88.53
  C 138.97 95.39 146.43 103.75 150.64 115.03
  Q 150.85 115.59 151.43 115.74
  L 177.49 122.76
  A 0.98 0.98 0.0 0 0 178.46 122.48
  L 183.59 116.96
  A 1.00 0.99 52.7 0 0 183.74 115.83
  Q 170.28 90.04 148.12 71.48
  Q 129.44 55.76 106.40 48.33
  A 0.62 0.60 -71.4 0 0 105.64 48.72
  C 103.09 55.99 101.40 67.35 106.46 73.96
  Q 108.18 76.21 113.28 79.05
  Q 121.33 83.52 128.99 88.53
  Z
  M 47.76 138.05
  Q 46.15 142.49 46.01 144.00
  Q 45.67 147.79 44.99 151.12
  Q 44.87 151.69 44.29 151.63
  L 42.73 151.47
  Q 42.11 151.40 42.33 150.81
  C 44.37 145.41 37.69 141.91 36.53 146.51
  C 35.18 151.86 39.83 153.57 44.27 153.95
  Q 44.83 154.00 44.80 154.56
  C 44.46 161.08 44.17 166.00 48.24 171.72
  C 52.11 177.16 51.45 183.75 56.30 188.94
  A 2.71 2.71 0.0 0 1 57.02 190.97
  Q 56.29 201.74 58.72 212.24
  C 59.92 217.46 65.68 216.16 69.44 215.96
  A 1.24 1.23 -25.6 0 0 70.20 213.81
  C 68.34 212.13 66.86 210.42 66.76 207.70
  C 66.60 203.65 67.40 199.68 66.96 195.65
  C 65.91 186.18 77.48 183.64 77.46 175.24
  C 77.45 171.57 79.95 171.39 82.79 172.35
  Q 88.51 174.28 93.00 174.90
  C 107.26 176.84 123.56 177.34 138.53 174.67
  C 141.98 174.05 145.33 178.34 147.27 180.65
  C 151.04 185.14 151.54 190.96 154.80 195.78
  C 155.79 197.24 157.56 199.11 157.32 201.01
  Q 157.05 203.21 155.86 207.41
  A 0.82 0.80 36.9 0 0 155.96 208.07
  L 160.44 215.14
  Q 160.81 215.71 161.49 215.69
  L 171.95 215.33
  A 0.44 0.44 0.0 0 0 172.28 214.63
  C 169.69 211.17 166.17 207.47 166.07 202.86
  C 166.03 201.26 165.27 199.83 165.23 198.51
  C 165.03 190.84 166.18 180.85 171.88 174.81
  C 174.61 171.90 175.73 170.06 176.98 166.72
  A 0.34 0.34 0.0 0 1 177.54 166.60
  C 181.42 170.38 189.43 174.55 194.63 170.88
  Q 200.07 167.05 205.07 161.56
  Q 206.14 160.38 207.93 161.32
  A 1.64 1.53 -31.0 0 0 208.73 161.49
  Q 210.75 161.37 211.64 159.63
  A 1.53 1.51 -76.7 0 1 212.98 158.79
  L 218.23 158.69
  A 1.76 1.76 0.0 0 0 219.86 157.48
  Q 221.67 151.93 220.01 146.22
  A 1.08 1.07 80.4 0 0 218.93 145.45
  Q 211.53 145.76 207.21 140.51
  Q 206.58 139.74 205.01 136.19
  Q 202.93 131.49 197.78 129.81
  C 196.41 129.36 194.78 129.50 193.34 128.99
  A 2.15 2.15 0.0 0 1 192.20 125.89
  L 193.25 124.09
  Q 193.51 123.64 193.36 123.14
  L 191.02 115.23
  A 0.64 0.63 60.4 0 0 189.98 114.94
  C 187.51 117.21 184.69 119.16 182.56 121.70
  Q 180.98 123.59 179.51 125.47
  A 0.80 0.78 26.9 0 1 178.65 125.74
  Q 158.94 119.85 138.82 115.65
  Q 137.69 101.38 126.51 92.75
  A 0.50 0.49 15.4 0 0 125.71 93.20
  C 126.09 96.11 120.97 96.14 119.27 95.92
  C 114.19 95.26 113.45 91.59 114.30 87.12
  A 1.25 1.25 0.0 0 0 114.06 86.11
  Q 112.74 84.39 110.11 83.38
  Q 99.02 79.12 95.25 78.01
  Q 94.65 77.83 94.27 77.96
  A 0.49 0.49 0.0 0 0 94.18 78.84
  Q 98.89 81.63 103.47 84.31
  C 108.99 87.54 98.95 93.69 96.66 95.34
  A 1.05 1.05 0.0 0 0 96.81 97.14
  L 98.91 98.16
  A 1.57 1.57 0.0 0 1 99.53 100.43
  C 93.17 110.06 80.05 99.03 90.86 94.61
  Q 91.57 94.32 91.00 93.80
  C 87.38 90.45 83.79 86.52 79.14 84.52
  Q 77.29 83.73 78.58 85.27
  C 80.21 87.21 85.26 92.36 83.29 95.25
  C 81.46 97.95 77.38 95.81 75.42 94.36
  A 0.79 0.79 0.0 0 0 74.20 94.73
  C 73.63 96.35 72.34 99.29 70.41 99.56
  Q 69.64 99.66 69.51 98.90
  Q 68.63 93.75 68.18 88.74
  Q 68.06 87.45 67.07 87.99
  A 0.73 0.70 89.1 0 0 66.77 88.31
  Q 65.01 92.16 64.08 95.95
  C 62.44 102.67 67.99 102.07 69.88 106.35
  Q 71.34 109.67 68.81 111.84
  C 67.56 112.90 65.83 112.46 65.16 111.08
  C 63.70 108.09 66.94 105.05 61.52 103.39
  Q 61.06 103.25 60.82 103.67
  Q 58.88 107.16 55.27 107.22
  C 50.48 107.30 46.28 102.67 42.83 100.00
  Q 42.24 99.54 42.28 100.29
  C 42.56 105.33 46.70 108.63 50.36 111.49
  C 53.16 113.67 52.80 115.25 50.57 117.58
  C 48.39 119.85 46.65 117.52 45.40 115.98
  Q 44.82 115.27 44.79 116.18
  C 44.75 117.21 45.21 118.16 45.15 119.11
  Q 44.75 125.43 44.44 131.75
  Q 44.20 136.51 47.76 138.05
  Z
  M 69.17 207.50
  C 69.14 211.53 75.23 212.53 72.27 217.00
  Q 71.99 217.43 72.41 217.73
  C 90.77 230.75 114.39 239.60 136.75 237.95
  C 168.42 235.61 191.33 214.11 195.75 182.71
  Q 196.47 177.62 197.02 172.65
  A 0.27 0.27 0.0 0 0 196.57 172.42
  C 191.68 176.78 183.32 174.10 178.71 170.73
  Q 178.21 170.37 177.89 170.90
  L 175.72 174.57
  Q 175.44 175.04 175.00 175.35
  C 169.15 179.45 167.91 190.31 167.74 196.79
  C 167.69 198.75 168.35 200.53 168.58 202.55
  C 169.05 206.64 171.82 210.00 174.22 213.13
  A 2.85 2.84 67.7 0 1 172.32 217.69
  Q 167.81 218.25 162.50 218.38
  C 158.38 218.49 155.74 212.93 154.11 209.58
  C 152.28 205.82 156.50 201.86 153.90 198.77
  C 150.21 194.38 149.64 189.29 147.29 185.27
  Q 144.50 180.50 140.14 177.05
  A 1.23 1.23 0.0 0 0 139.09 176.82
  Q 131.28 178.71 123.08 178.91
  Q 106.60 179.31 90.33 176.79
  Q 85.53 176.04 81.14 174.26
  A 0.87 0.86 11.7 0 0 79.95 175.04
  C 79.87 178.24 79.29 180.57 76.95 183.03
  C 73.59 186.55 69.11 190.15 69.26 195.54
  C 69.40 200.31 69.19 203.46 69.17 207.50
  Z"
/>
<path fill="#e04229" d="
  M 51.45 58.55
  Q 51.02 58.61 50.52 59.01
  Q 40.60 66.99 32.22 76.55
  C 28.49 80.81 26.12 83.23 24.36 87.12
  C 19.42 98.09 30.53 104.56 37.34 110.16
  C 41.99 113.98 38.83 117.32 36.78 121.18
  C 32.45 129.36 36.70 136.62 42.03 142.47
  Q 42.82 143.34 41.80 142.75
  C 37.75 140.37 33.40 144.00 33.66 148.34
  C 33.91 152.61 37.63 155.47 41.65 156.15
  Q 42.22 156.24 42.23 156.82
  Q 42.25 158.16 42.14 160.24
  C 41.86 165.80 43.69 168.87 46.31 173.04
  Q 47.46 174.86 48.08 177.25
  Q 49.99 184.55 54.21 190.86
  Q 54.44 191.20 54.44 191.61
  L 54.52 202.49
  Q 54.52 202.93 54.22 202.62
  Q 31.45 179.92 20.72 149.56
  C 10.41 120.38 11.00 83.03 35.60 60.51
  Q 50.16 47.18 70.69 44.82
  Q 71.26 44.75 70.88 45.19
  Q 66.72 50.01 60.60 56.09
  Q 58.08 58.59 56.88 62.37
  C 55.02 68.25 52.88 74.36 56.95 79.95
  C 59.33 83.23 60.61 86.69 60.31 90.75
  C 59.89 96.40 55.85 98.80 50.49 97.33
  C 32.63 92.40 46.36 67.75 51.77 59.05
  A 0.33 0.33 0.0 0 0 51.45 58.55
  Z"
/>
<path fill="#e04229" d="
  M 98.21 47.40
  C 90.72 56.96 85.42 67.14 86.43 79.87
  A 0.45 0.44 -83.1 0 1 85.85 80.33
  C 81.18 78.83 75.36 76.29 72.33 72.23
  C 69.12 67.93 70.41 64.74 74.09 61.21
  C 79.11 56.38 83.79 51.37 87.40 45.59
  A 2.08 2.07 21.2 0 1 89.56 44.64
  L 97.74 46.16
  Q 98.99 46.40 98.21 47.40
  Z"
/>
<path fill="#e04229" d="
  M 148.12 71.48
  Q 147.34 71.86 146.86 72.35
  Q 146.64 72.57 146.92 72.71
  Q 147.16 72.83 147.12 73.17
  A 0.24 0.23 77.6 0 1 147.01 73.35
  Q 145.97 74.07 145.59 74.49
  A 0.23 0.23 0.0 0 0 145.79 74.88
  Q 146.03 74.85 146.24 74.98
  A 0.60 0.59 53.5 0 1 146.08 76.07
  Q 144.82 76.38 143.75 75.77
  Q 143.37 75.56 143.37 76.00
  L 143.37 77.53
  Q 143.37 77.97 143.79 77.89
  Q 144.05 77.84 144.14 77.56
  Q 144.36 76.88 144.73 77.49
  Q 145.01 77.94 144.78 78.42
  Q 144.58 78.84 144.11 78.88
  Q 143.17 78.94 143.12 79.42
  A 1.65 1.45 -74.1 0 1 140.97 80.80
  Q 140.52 80.56 140.08 81.18
  Q 139.91 81.43 140.13 81.63
  Q 140.53 82.00 141.00 82.14
  Q 141.72 82.35 141.14 82.84
  Q 140.85 83.09 140.75 83.46
  Q 140.58 84.07 140.13 83.62
  L 139.78 83.27
  Q 139.69 83.18 139.57 83.22
  Q 139.32 83.29 139.37 83.51
  Q 139.39 83.62 139.72 84.05
  Q 139.87 84.25 139.92 84.66
  A 0.45 0.45 0.0 0 1 139.19 85.07
  Q 138.89 84.82 138.51 84.85
  Q 138.16 84.88 138.13 85.24
  Q 138.09 85.62 137.88 85.95
  Q 137.53 86.51 137.17 85.95
  L 136.87 85.49
  Q 136.51 84.94 136.07 85.42
  Q 135.53 86.02 134.92 85.59
  Q 134.50 85.28 134.16 85.68
  Q 133.69 86.25 133.91 87.02
  Q 133.94 87.13 132.94 88.68
  Q 131.95 90.20 130.53 89.33
  Q 130.29 89.18 130.45 88.94
  Q 130.55 88.80 130.59 88.65
  Q 130.68 88.33 130.36 88.41
  Q 129.65 88.60 128.99 88.53
  Q 121.33 83.52 113.28 79.05
  Q 108.18 76.21 106.46 73.96
  C 101.40 67.35 103.09 55.99 105.64 48.72
  A 0.62 0.60 -71.4 0 1 106.40 48.33
  Q 129.44 55.76 148.12 71.48
  Z"
/>
<path fill="#eb552c" d="
  M 148.12 71.48
  Q 170.28 90.04 183.74 115.83
  A 1.00 0.99 52.7 0 1 183.59 116.96
  L 178.46 122.48
  A 0.98 0.98 0.0 0 1 177.49 122.76
  L 151.43 115.74
  Q 150.85 115.59 150.64 115.03
  C 146.43 103.75 138.97 95.39 128.99 88.53
  Q 129.65 88.60 130.36 88.41
  Q 130.68 88.33 130.59 88.65
  Q 130.55 88.80 130.45 88.94
  Q 130.29 89.18 130.53 89.33
  Q 131.95 90.20 132.94 88.68
  Q 133.94 87.13 133.91 87.02
  Q 133.69 86.25 134.16 85.68
  Q 134.50 85.28 134.92 85.59
  Q 135.53 86.02 136.07 85.42
  Q 136.51 84.94 136.87 85.49
  L 137.17 85.95
  Q 137.53 86.51 137.88 85.95
  Q 138.09 85.62 138.13 85.24
  Q 138.16 84.88 138.51 84.85
  Q 138.89 84.82 139.19 85.07
  A 0.45 0.45 0.0 0 0 139.92 84.66
  Q 139.87 84.25 139.72 84.05
  Q 139.39 83.62 139.37 83.51
  Q 139.32 83.29 139.57 83.22
  Q 139.69 83.18 139.78 83.27
  L 140.13 83.62
  Q 140.58 84.07 140.75 83.46
  Q 140.85 83.09 141.14 82.84
  Q 141.72 82.35 141.00 82.14
  Q 140.53 82.00 140.13 81.63
  Q 139.91 81.43 140.08 81.18
  Q 140.52 80.56 140.97 80.80
  A 1.65 1.45 -74.1 0 0 143.12 79.42
  Q 143.17 78.94 144.11 78.88
  Q 144.58 78.84 144.78 78.42
  Q 145.01 77.94 144.73 77.49
  Q 144.36 76.88 144.14 77.56
  Q 144.05 77.84 143.79 77.89
  Q 143.37 77.97 143.37 77.53
  L 143.37 76.00
  Q 143.37 75.56 143.75 75.77
  Q 144.82 76.38 146.08 76.07
  A 0.60 0.59 53.5 0 0 146.24 74.98
  Q 146.03 74.85 145.79 74.88
  A 0.23 0.23 0.0 0 1 145.59 74.49
  Q 145.97 74.07 147.01 73.35
  A 0.24 0.23 77.6 0 0 147.12 73.17
  Q 147.16 72.83 146.92 72.71
  Q 146.64 72.57 146.86 72.35
  Q 147.34 71.86 148.12 71.48
  Z"
/>
<path fill="#f79d24" d="
  M 138.82 115.65
  Q 127.44 112.88 120.72 112.63
  C 101.99 111.93 57.08 117.39 47.76 138.05
  Q 44.20 136.51 44.44 131.75
  Q 44.75 125.43 45.15 119.11
  C 45.21 118.16 44.75 117.21 44.79 116.18
  Q 44.82 115.27 45.40 115.98
  C 46.65 117.52 48.39 119.85 50.57 117.58
  C 52.80 115.25 53.16 113.67 50.36 111.49
  C 46.70 108.63 42.56 105.33 42.28 100.29
  Q 42.24 99.54 42.83 100.00
  C 46.28 102.67 50.48 107.30 55.27 107.22
  Q 58.88 107.16 60.82 103.67
  Q 61.06 103.25 61.52 103.39
  C 66.94 105.05 63.70 108.09 65.16 111.08
  C 65.83 112.46 67.56 112.90 68.81 111.84
  Q 71.34 109.67 69.88 106.35
  C 67.99 102.07 62.44 102.67 64.08 95.95
  Q 65.01 92.16 66.77 88.31
  A 0.73 0.70 89.1 0 1 67.07 87.99
  Q 68.06 87.45 68.18 88.74
  Q 68.63 93.75 69.51 98.90
  Q 69.64 99.66 70.41 99.56
  C 72.34 99.29 73.63 96.35 74.20 94.73
  A 0.79 0.79 0.0 0 1 75.42 94.36
  C 77.38 95.81 81.46 97.95 83.29 95.25
  C 85.26 92.36 80.21 87.21 78.58 85.27
  Q 77.29 83.73 79.14 84.52
  C 83.79 86.52 87.38 90.45 91.00 93.80
  Q 91.57 94.32 90.86 94.61
  C 80.05 99.03 93.17 110.06 99.53 100.43
  A 1.57 1.57 0.0 0 0 98.91 98.16
  L 96.81 97.14
  A 1.05 1.05 0.0 0 1 96.66 95.34
  C 98.95 93.69 108.99 87.54 103.47 84.31
  Q 98.89 81.63 94.18 78.84
  A 0.49 0.49 0.0 0 1 94.27 77.96
  Q 94.65 77.83 95.25 78.01
  Q 99.02 79.12 110.11 83.38
  Q 112.74 84.39 114.06 86.11
  A 1.25 1.25 0.0 0 1 114.30 87.12
  C 113.45 91.59 114.19 95.26 119.27 95.92
  C 120.97 96.14 126.09 96.11 125.71 93.20
  A 0.50 0.49 15.4 0 1 126.51 92.75
  Q 137.69 101.38 138.82 115.65
  Z"
/>
<path fill="#f7ea24" d="
  M 285.29 128.84
  C 290.69 114.85 311.82 115.30 314.44 131.29
  C 314.87 133.94 315.96 140.18 312.48 140.82
  A 0.49 0.49 0.0 0 0 312.09 141.37
  L 313.34 149.12
  A 1.17 1.15 68.5 0 1 312.86 150.25
  C 308.11 153.52 298.06 153.39 293.76 151.67
  C 284.98 148.16 282.59 138.70 284.77 130.25
  Q 284.82 130.06 284.68 130.06
  Q 284.61 130.06 284.59 130.13
  C 282.14 138.82 273.36 139.07 266.28 139.91
  Q 265.76 139.97 265.76 140.50
  L 265.76 149.75
  A 2.26 2.26 0.0 0 1 263.50 152.01
  L 254.56 152.01
  A 1.70 1.70 0.0 0 1 252.86 150.31
  L 252.86 113.27
  A 1.98 1.98 0.0 0 1 254.51 111.32
  C 263.16 109.87 279.47 108.58 284.06 118.40
  C 285.51 121.49 285.24 125.25 285.02 128.78
  Q 284.96 129.70 285.29 128.84
  Z
  M 263.36 138.03
  A 0.48 0.48 0.0 0 1 263.83 137.55
  C 271.49 137.48 281.74 136.92 282.80 126.93
  Q 283.18 123.31 282.73 121.73
  Q 280.76 114.90 273.68 113.72
  Q 270.96 113.26 268.22 112.89
  C 263.97 112.30 259.85 112.93 255.68 113.60
  Q 255.13 113.69 255.13 114.25
  L 255.13 149.18
  A 0.55 0.55 0.0 0 0 255.68 149.73
  L 262.97 149.73
  Q 263.41 149.73 263.41 149.28
  L 263.36 138.03
  Z
  M 295.14 140.20
  Q 294.07 138.50 296.08 138.50
  L 310.97 138.50
  Q 312.85 138.50 312.65 136.63
  C 311.89 129.81 311.29 123.32 303.25 121.75
  C 294.09 119.97 287.73 124.84 286.50 133.66
  Q 285.79 138.70 287.67 142.83
  C 291.57 151.40 302.31 151.82 310.05 149.04
  A 1.12 1.12 0.0 0 0 310.77 147.80
  L 309.92 143.00
  Q 309.77 142.14 308.95 142.44
  Q 304.13 144.19 299.05 143.20
  Q 296.74 142.75 295.49 140.76
  L 295.14 140.20
  Z"
/>
<path fill="#f7ea24" d="
  M 338.10 143.07
  C 338.47 145.48 340.45 150.08 337.23 151.21
  C 327.91 154.52 316.07 152.77 316.01 140.24
  Q 315.95 127.13 316.00 114.63
  A 2.11 2.10 -3.6 0 1 317.83 112.56
  L 326.34 111.45
  A 1.94 1.93 86.1 0 1 328.53 113.36
  L 328.55 119.02
  A 0.47 0.47 0.0 0 0 329.02 119.49
  L 335.69 119.49
  A 2.28 2.28 0.0 0 1 337.97 121.67
  Q 338.11 124.59 337.98 127.71
  C 337.78 132.49 332.71 130.87 329.10 131.03
  Q 328.63 131.05 328.61 131.52
  Q 328.34 137.01 328.70 139.51
  Q 329.02 141.72 331.53 141.24
  C 333.51 140.86 335.90 139.52 337.47 141.46
  Q 337.95 142.06 337.88 141.30
  C 337.25 135.08 336.58 131.01 340.23 125.48
  C 346.07 116.64 360.20 116.68 365.66 125.50
  C 367.33 128.20 370.28 139.70 365.59 140.91
  Q 365.11 141.03 365.22 141.51
  Q 365.92 144.65 366.28 147.75
  Q 366.56 150.21 364.69 150.92
  C 355.10 154.55 342.81 153.86 338.29 143.02
  Q 337.99 142.30 338.10 143.07
  Z
  M 326.80 128.49
  L 334.99 128.56
  A 0.56 0.55 0.0 0 0 335.55 128.01
  L 335.58 122.52
  A 0.56 0.55 -0.0 0 0 335.02 121.97
  L 326.82 121.93
  A 0.61 0.60 -89.5 0 1 326.23 121.32
  L 326.26 114.02
  Q 326.26 113.79 326.03 113.83
  L 318.62 114.86
  Q 318.28 114.91 318.28 115.25
  C 318.25 123.81 318.00 132.41 318.48 140.92
  C 319.07 151.30 328.93 151.63 336.45 149.06
  A 0.43 0.42 -15.0 0 0 336.73 148.58
  L 335.62 143.08
  Q 335.56 142.76 335.26 142.87
  C 333.00 143.64 326.91 144.59 326.45 140.76
  Q 325.94 136.48 326.36 128.91
  Q 326.39 128.49 326.80 128.49
  Z
  M 349.22 138.50
  L 364.73 138.51
  Q 365.49 138.51 365.54 137.75
  C 365.94 131.53 364.53 123.98 357.53 121.95
  C 347.77 119.12 340.07 125.30 339.52 135.14
  C 339.42 136.91 339.89 138.73 340.25 140.52
  C 341.06 144.52 343.48 147.66 347.25 149.20
  C 352.45 151.34 357.17 150.36 362.54 149.42
  Q 363.94 149.18 363.78 147.76
  L 363.30 143.49
  Q 363.13 142.03 361.75 142.53
  Q 357.29 144.13 352.56 143.27
  Q 350.26 142.86 348.87 141.00
  L 348.33 140.28
  Q 346.99 138.50 349.22 138.50
  Z"
/>
<path fill="#9d2222" d="
  M 138.82 115.65
  Q 158.94 119.85 178.65 125.74
  A 0.80 0.78 26.9 0 0 179.51 125.47
  Q 180.98 123.59 182.56 121.70
  C 184.69 119.16 187.51 117.21 189.98 114.94
  A 0.64 0.63 60.4 0 1 191.02 115.23
  L 193.36 123.14
  Q 193.51 123.64 193.25 124.09
  L 192.20 125.89
  A 2.15 2.15 0.0 0 0 193.34 128.99
  C 194.78 129.50 196.41 129.36 197.78 129.81
  Q 202.93 131.49 205.01 136.19
  Q 206.58 139.74 207.21 140.51
  Q 211.53 145.76 218.93 145.45
  A 1.08 1.07 80.4 0 1 220.01 146.22
  Q 221.67 151.93 219.86 157.48
  A 1.76 1.76 0.0 0 1 218.23 158.69
  L 212.98 158.79
  A 1.53 1.51 -76.7 0 0 211.64 159.63
  Q 210.75 161.37 208.73 161.49
  A 1.64 1.53 -31.0 0 1 207.93 161.32
  Q 206.14 160.38 205.07 161.56
  Q 200.07 167.05 194.63 170.88
  C 189.43 174.55 181.42 170.38 177.54 166.60
  A 0.34 0.34 0.0 0 0 176.98 166.72
  C 175.73 170.06 174.61 171.90 171.88 174.81
  C 166.18 180.85 165.03 190.84 165.23 198.51
  C 165.27 199.83 166.03 201.26 166.07 202.86
  C 166.17 207.47 169.69 211.17 172.28 214.63
  A 0.44 0.44 0.0 0 1 171.95 215.33
  L 161.49 215.69
  Q 160.81 215.71 160.44 215.14
  L 155.96 208.07
  A 0.82 0.80 36.9 0 1 155.86 207.41
  Q 157.05 203.21 157.32 201.01
  C 157.56 199.11 155.79 197.24 154.80 195.78
  C 151.54 190.96 151.04 185.14 147.27 180.65
  C 145.33 178.34 141.98 174.05 138.53 174.67
  C 123.56 177.34 107.26 176.84 93.00 174.90
  Q 88.51 174.28 82.79 172.35
  C 79.95 171.39 77.45 171.57 77.46 175.24
  C 77.48 183.64 65.91 186.18 66.96 195.65
  C 67.40 199.68 66.60 203.65 66.76 207.70
  C 66.86 210.42 68.34 212.13 70.20 213.81
  A 1.24 1.23 -25.6 0 1 69.44 215.96
  C 65.68 216.16 59.92 217.46 58.72 212.24
  Q 56.29 201.74 57.02 190.97
  A 2.71 2.71 0.0 0 0 56.30 188.94
  C 51.45 183.75 52.11 177.16 48.24 171.72
  C 44.17 166.00 44.46 161.08 44.80 154.56
  Q 44.83 154.00 44.27 153.95
  C 39.83 153.57 35.18 151.86 36.53 146.51
  C 37.69 141.91 44.37 145.41 42.33 150.81
  Q 42.11 151.40 42.73 151.47
  L 44.29 151.63
  Q 44.87 151.69 44.99 151.12
  Q 45.67 147.79 46.01 144.00
  Q 46.15 142.49 47.76 138.05
  C 57.08 117.39 101.99 111.93 120.72 112.63
  Q 127.44 112.88 138.82 115.65
  Z
  M 197.00 138.87
  Q 196.23 139.13 195.96 139.85
  A 0.72 0.72 0.0 0 0 196.81 140.80
  L 200.51 139.83
  A 0.95 0.95 0.0 0 0 200.81 138.13
  Q 199.21 137.02 197.73 138.43
  Q 197.41 138.73 197.00 138.87
  Z
  M 37.35 147.63
  Q 37.26 149.84 39.43 151.20
  Q 40.35 151.77 40.80 150.79
  Q 41.59 149.10 41.17 147.32
  A 1.97 1.97 0.0 0 0 39.22 145.81
  Q 37.42 145.85 37.35 147.63
  Z"
/>
<path fill="#9d2222" d="
  M 263.36 138.03
  L 263.41 149.28
  Q 263.41 149.73 262.97 149.73
  L 255.68 149.73
  A 0.55 0.55 0.0 0 1 255.13 149.18
  L 255.13 114.25
  Q 255.13 113.69 255.68 113.60
  C 259.85 112.93 263.97 112.30 268.22 112.89
  Q 270.96 113.26 273.68 113.72
  Q 280.76 114.90 282.73 121.73
  Q 283.18 123.31 282.80 126.93
  C 281.74 136.92 271.49 137.48 263.83 137.55
  A 0.48 0.48 0.0 0 0 263.36 138.03
  Z
  M 263.39 120.26
  L 263.39 129.88
  A 0.50 0.50 0.0 0 0 263.89 130.38
  L 267.74 130.38
  A 6.67 4.87 0.0 0 0 274.41 125.51
  L 274.41 124.63
  A 6.67 4.87 -0.0 0 0 267.74 119.76
  L 263.89 119.76
  A 0.50 0.50 0.0 0 0 263.39 120.26
  Z"
/>
<path fill="#9d2222" d="
  M 326.36 128.91
  Q 325.94 136.48 326.45 140.76
  C 326.91 144.59 333.00 143.64 335.26 142.87
  Q 335.56 142.76 335.62 143.08
  L 336.73 148.58
  A 0.43 0.42 -15.0 0 1 336.45 149.06
  C 328.93 151.63 319.07 151.30 318.48 140.92
  C 318.00 132.41 318.25 123.81 318.28 115.25
  Q 318.28 114.91 318.62 114.86
  L 326.03 113.83
  Q 326.26 113.79 326.26 114.02
  L 326.23 121.32
  A 0.61 0.60 -89.5 0 0 326.82 121.93
  L 335.02 121.97
  A 0.56 0.55 0.0 0 1 335.58 122.52
  L 335.55 128.01
  A 0.56 0.55 0.0 0 1 334.99 128.56
  L 326.80 128.49
  Q 326.39 128.49 326.36 128.91
  Z"
/>
<path fill="#f7ea24" d="
  M 382.00 131.22
  L 382.00 150.00
  A 2.01 2.00 -90.0 0 1 380.00 152.01
  L 371.48 152.01
  A 2.08 2.08 0.0 0 1 369.40 149.93
  Q 369.36 136.49 369.42 123.50
  C 369.43 121.37 370.63 121.25 372.53 120.64
  C 375.94 119.55 393.47 116.30 392.04 123.74
  Q 391.27 127.74 390.77 129.50
  C 389.87 132.65 385.04 130.53 382.60 130.61
  Q 382.00 130.62 382.00 131.22
  Z
  M 380.29 128.25
  L 387.45 128.55
  Q 388.51 128.59 388.73 127.56
  L 389.63 123.33
  Q 389.89 122.14 388.68 121.93
  Q 380.19 120.47 372.07 123.30
  A 0.72 0.72 0.0 0 0 371.59 123.98
  L 371.56 149.00
  Q 371.56 149.69 372.25 149.70
  L 378.90 149.74
  Q 379.55 149.74 379.55 149.10
  L 379.55 128.97
  Q 379.55 128.22 380.29 128.25
  Z"
/>
<path fill="#f7ea24" d="
  M 263.39 120.26
  A 0.50 0.50 0.0 0 1 263.89 119.76
  L 267.74 119.76
  A 6.67 4.87 0.0 0 1 274.41 124.63
  L 274.41 125.51
  A 6.67 4.87 0.0 0 1 267.74 130.38
  L 263.89 130.38
  A 0.50 0.50 0.0 0 1 263.39 129.88
  L 263.39 120.26
  Z
  M 265.79 122.88
  L 265.77 127.24
  A 0.66 0.66 0.0 0 0 266.43 127.90
  L 267.69 127.91
  A 4.24 2.71 0.2 0 0 271.94 125.21
  L 271.94 124.95
  A 4.24 2.71 0.2 0 0 267.71 122.23
  L 266.45 122.22
  A 0.66 0.66 0.0 0 0 265.79 122.88
  Z"
/>
<path fill="#9d2222" d="
  M 295.14 140.20
  L 295.49 140.76
  Q 296.74 142.75 299.05 143.20
  Q 304.13 144.19 308.95 142.44
  Q 309.77 142.14 309.92 143.00
  L 310.77 147.80
  A 1.12 1.12 0.0 0 1 310.05 149.04
  C 302.31 151.82 291.57 151.40 287.67 142.83
  Q 285.79 138.70 286.50 133.66
  C 287.73 124.84 294.09 119.97 303.25 121.75
  C 311.29 123.32 311.89 129.81 312.65 136.63
  Q 312.85 138.50 310.97 138.50
  L 296.08 138.50
  Q 294.07 138.50 295.14 140.20
  Z
  M 294.88 133.13
  L 304.50 132.97
  A 0.22 0.22 0.0 0 0 304.71 132.74
  L 304.71 132.66
  A 4.96 4.93 89.0 0 0 299.69 127.79
  L 299.49 127.79
  A 4.96 4.93 89.0 0 0 294.65 132.84
  L 294.65 132.92
  A 0.22 0.22 0.0 0 0 294.88 133.13
  Z"
/>
<path fill="#9d2222" d="
  M 349.22 138.50
  Q 346.99 138.50 348.33 140.28
  L 348.87 141.00
  Q 350.26 142.86 352.56 143.27
  Q 357.29 144.13 361.75 142.53
  Q 363.13 142.03 363.30 143.49
  L 363.78 147.76
  Q 363.94 149.18 362.54 149.42
  C 357.17 150.36 352.45 151.34 347.25 149.20
  C 343.48 147.66 341.06 144.52 340.25 140.52
  C 339.89 138.73 339.42 136.91 339.52 135.14
  C 340.07 125.30 347.77 119.12 357.53 121.95
  C 364.53 123.98 365.94 131.53 365.54 137.75
  Q 365.49 138.51 364.73 138.51
  L 349.22 138.50
  Z
  M 348.05 133.06
  L 357.71 133.00
  A 0.17 0.17 0.0 0 0 357.88 132.83
  L 357.88 132.75
  A 4.97 4.95 89.7 0 0 352.91 127.81
  L 352.81 127.81
  A 4.97 4.95 89.7 0 0 347.88 132.81
  L 347.88 132.89
  A 0.17 0.17 0.0 0 0 348.05 133.06
  Z"
/>
<path fill="#9d2222" d="
  M 379.55 128.97
  L 379.55 149.10
  Q 379.55 149.74 378.90 149.74
  L 372.25 149.70
  Q 371.56 149.69 371.56 149.00
  L 371.59 123.98
  A 0.72 0.72 0.0 0 1 372.07 123.30
  Q 380.19 120.47 388.68 121.93
  Q 389.89 122.14 389.63 123.33
  L 388.73 127.56
  Q 388.51 128.59 387.45 128.55
  L 380.29 128.25
  Q 379.55 128.22 379.55 128.97
  Z"
/>
<path fill="#f7ea24" d="
  M 294.88 133.13
  A 0.22 0.22 0.0 0 1 294.65 132.92
  L 294.65 132.84
  A 4.96 4.93 89.0 0 1 299.49 127.79
  L 299.69 127.79
  A 4.96 4.93 89.0 0 1 304.71 132.66
  L 304.71 132.74
  A 0.22 0.22 0.0 0 1 304.50 132.97
  L 294.88 133.13
  Z"
/>
<path fill="#f7ea24" d="
  M 348.05 133.06
  A 0.17 0.17 0.0 0 1 347.88 132.89
  L 347.88 132.81
  A 4.97 4.95 89.7 0 1 352.81 127.81
  L 352.91 127.81
  A 4.97 4.95 89.7 0 1 357.88 132.75
  L 357.88 132.83
  A 0.17 0.17 0.0 0 1 357.71 133.00
  L 348.05 133.06
  Z"
/>
<path fill="#f7ea24" d="
  M 197.73 138.43
  Q 199.21 137.02 200.81 138.13
  A 0.95 0.95 0.0 0 1 200.51 139.83
  L 196.81 140.80
  A 0.72 0.72 0.0 0 1 195.96 139.85
  Q 196.23 139.13 197.00 138.87
  Q 197.41 138.73 197.73 138.43
  Z"
/>
<path fill="#f7ea24" d="
  M 37.35 147.63
  Q 37.42 145.85 39.22 145.81
  A 1.97 1.97 0.0 0 1 41.17 147.32
  Q 41.59 149.10 40.80 150.79
  Q 40.35 151.77 39.43 151.20
  Q 37.26 149.84 37.35 147.63
  Z"
/>
<path fill="#f7ea24" d="
  M 378.53 206.62
  L 386.69 207.76
  A 2.73 2.73 0.0 0 1 388.94 211.20
  L 386.87 218.57
  A 1.89 1.89 0.0 0 1 385.14 219.96
  Q 376.17 220.43 367.85 216.10
  Q 363.53 213.85 362.65 211.27
  Q 362.14 209.75 361.34 208.38
  A 1.08 1.08 0.0 0 0 360.60 207.86
  C 351.20 206.01 344.80 199.85 342.14 190.64
  C 338.86 179.24 342.17 165.27 352.59 158.83
  C 359.99 154.26 370.05 153.95 377.92 157.47
  C 389.29 162.55 392.95 173.95 391.80 185.98
  Q 390.48 199.77 378.44 206.13
  Q 377.72 206.51 378.53 206.62
  Z
  M 374.32 204.88
  C 388.51 201.43 392.57 183.78 388.13 171.81
  C 382.28 156.04 361.11 152.64 349.72 164.30
  C 342.53 171.67 341.53 185.53 346.06 194.46
  Q 351.02 204.23 362.59 205.69
  A 0.77 0.75 -2.7 0 1 363.23 206.26
  C 365.50 215.54 375.67 217.58 384.12 217.61
  Q 384.65 217.61 384.80 217.09
  L 386.64 210.73
  Q 386.76 210.32 386.34 210.22
  C 381.59 209.08 378.46 209.84 373.97 206.66
  A 1.00 1.00 0.0 0 1 374.32 204.88
  Z"
/>
<path fill="#f7ea24" d="
  M 289.19 179.87
  C 293.84 183.64 295.25 190.42 293.59 195.98
  C 291.22 203.92 283.72 207.30 276.00 207.86
  Q 265.44 208.62 254.72 206.84
  A 2.21 2.20 -85.4 0 1 252.87 204.66
  Q 252.85 181.93 252.87 158.87
  Q 252.87 157.00 255.00 156.70
  Q 266.45 155.13 277.25 156.22
  C 282.24 156.72 287.36 159.24 289.96 163.57
  C 292.59 167.96 292.92 174.73 289.11 178.88
  A 0.68 0.67 40.8 0 0 289.19 179.87
  Z
  M 284.98 179.27
  C 289.99 176.21 290.89 169.61 288.04 164.96
  C 285.94 161.54 281.93 159.31 277.99 158.75
  Q 267.27 157.22 255.66 159.15
  Q 255.13 159.23 255.13 159.76
  L 255.11 203.96
  Q 255.11 204.45 255.60 204.54
  C 264.33 206.04 276.39 207.04 284.67 203.17
  C 292.23 199.62 294.42 188.28 288.60 182.48
  C 287.58 181.46 286.03 181.16 284.89 180.06
  Q 284.43 179.61 284.98 179.27
  Z"
/>
<path fill="#f7ea24" d="
  M 334.29 179.70
  C 337.94 183.94 339.50 185.81 339.19 192.31
  C 338.26 211.46 311.94 208.91 299.73 206.81
  A 2.10 2.10 0.0 0 1 297.99 204.74
  L 297.99 158.75
  A 1.97 1.97 0.0 0 1 299.68 156.80
  Q 311.21 155.18 322.50 156.22
  C 331.82 157.08 338.91 164.59 336.74 174.25
  Q 336.19 176.66 334.29 178.88
  Q 333.93 179.29 334.29 179.70
  Z
  M 329.98 179.44
  Q 333.72 177.05 334.42 173.75
  C 336.07 166.04 330.88 159.67 322.99 158.69
  Q 311.89 157.31 300.77 159.13
  Q 300.25 159.22 300.25 159.74
  L 300.25 203.77
  Q 300.25 204.37 300.84 204.49
  C 310.73 206.36 334.42 208.72 336.57 193.98
  Q 337.24 189.35 336.49 187.00
  C 335.14 182.84 333.01 182.08 329.98 180.12
  Q 329.45 179.78 329.98 179.44
  Z"
/>
<path fill="#9d2222" d="
  M 374.32 204.88
  A 1.00 1.00 0.0 0 0 373.97 206.66
  C 378.46 209.84 381.59 209.08 386.34 210.22
  Q 386.76 210.32 386.64 210.73
  L 384.80 217.09
  Q 384.65 217.61 384.12 217.61
  C 375.67 217.58 365.50 215.54 363.23 206.26
  A 0.77 0.75 -2.7 0 0 362.59 205.69
  Q 351.02 204.23 346.06 194.46
  C 341.53 185.53 342.53 171.67 349.72 164.30
  C 361.11 152.64 382.28 156.04 388.13 171.81
  C 392.57 183.78 388.51 201.43 374.32 204.88
  Z
  M 377.75 175.23
  C 375.72 167.77 367.77 164.78 361.01 168.06
  C 354.28 171.32 353.33 181.66 355.15 188.04
  C 357.25 195.43 364.67 198.58 371.47 195.73
  C 379.13 192.52 379.67 182.26 377.75 175.23
  Z"
/>
<path fill="#9d2222" d="
  M 284.89 180.06
  C 286.03 181.16 287.58 181.46 288.60 182.48
  C 294.42 188.28 292.23 199.62 284.67 203.17
  C 276.39 207.04 264.33 206.04 255.60 204.54
  Q 255.11 204.45 255.11 203.96
  L 255.13 159.76
  Q 255.13 159.23 255.66 159.15
  Q 267.27 157.22 277.99 158.75
  C 281.93 159.31 285.94 161.54 288.04 164.96
  C 290.89 169.61 289.99 176.21 284.98 179.27
  Q 284.43 179.61 284.89 180.06
  Z
  M 265.36 167.24
  L 265.38 176.02
  A 0.71 0.71 0.0 0 0 266.09 176.73
  L 272.32 176.72
  A 7.06 4.83 -0.1 0 0 279.37 171.88
  L 279.37 171.34
  A 7.06 4.83 -0.1 0 0 272.30 166.52
  L 266.07 166.53
  A 0.71 0.71 0.0 0 0 265.36 167.24
  Z
  M 265.34 185.68
  L 265.38 196.20
  A 0.91 0.91 0.0 0 0 266.29 197.10
  L 272.21 197.08
  A 8.95 5.91 -0.2 0 0 281.14 191.14
  L 281.14 190.62
  A 8.95 5.91 -0.2 0 0 272.17 184.74
  L 266.25 184.76
  A 0.91 0.91 0.0 0 0 265.34 185.68
  Z"
/>
<path fill="#9d2222" d="
  M 329.98 180.12
  C 333.01 182.08 335.14 182.84 336.49 187.00
  Q 337.24 189.35 336.57 193.98
  C 334.42 208.72 310.73 206.36 300.84 204.49
  Q 300.25 204.37 300.25 203.77
  L 300.25 159.74
  Q 300.25 159.22 300.77 159.13
  Q 311.89 157.31 322.99 158.69
  C 330.88 159.67 336.07 166.04 334.42 173.75
  Q 333.72 177.05 329.98 179.44
  Q 329.45 179.78 329.98 180.12
  Z
  M 310.48 167.17
  L 310.52 176.13
  A 0.62 0.62 0.0 0 0 311.14 176.75
  L 317.28 176.73
  A 7.22 4.58 -0.2 0 0 324.48 172.13
  L 324.48 171.09
  A 7.22 4.58 -0.2 0 0 317.24 166.53
  L 311.10 166.55
  A 0.62 0.62 0.0 0 0 310.48 167.17
  Z
  M 310.50 185.54
  L 310.50 196.30
  A 0.77 0.77 0.0 0 0 311.27 197.07
  L 317.47 197.07
  A 8.77 5.62 0.0 0 0 326.24 191.45
  L 326.24 190.39
  A 8.77 5.62 0.0 0 0 317.47 184.77
  L 311.27 184.77
  A 0.77 0.77 0.0 0 0 310.50 185.54
  Z"
/>
<path fill="#f7ea24" d="
  M 265.36 167.24
  A 0.71 0.71 0.0 0 1 266.07 166.53
  L 272.30 166.52
  A 7.06 4.83 -0.1 0 1 279.37 171.34
  L 279.37 171.88
  A 7.06 4.83 -0.1 0 1 272.32 176.72
  L 266.09 176.73
  A 0.71 0.71 0.0 0 1 265.38 176.02
  L 265.36 167.24
  Z
  M 267.73 169.51
  L 267.73 173.89
  A 0.54 0.54 0.0 0 0 268.27 174.43
  L 271.33 174.44
  A 5.48 2.47 0.1 0 0 276.81 171.98
  L 276.81 171.46
  A 5.48 2.47 0.1 0 0 271.33 168.98
  L 268.27 168.97
  A 0.54 0.54 0.0 0 0 267.73 169.51
  Z"
/>
<path fill="#f7ea24" d="
  M 310.48 167.17
  A 0.62 0.62 0.0 0 1 311.10 166.55
  L 317.24 166.53
  A 7.22 4.58 -0.2 0 1 324.48 171.09
  L 324.48 172.13
  A 7.22 4.58 -0.2 0 1 317.28 176.73
  L 311.14 176.75
  A 0.62 0.62 0.0 0 1 310.52 176.13
  L 310.48 167.17
  Z
  M 312.90 169.27
  L 312.90 174.07
  A 0.30 0.30 0.0 0 0 313.20 174.37
  L 316.78 174.36
  A 5.22 2.51 -0.1 0 0 322.00 171.84
  L 322.00 171.46
  A 5.22 2.51 -0.1 0 0 316.78 168.96
  L 313.20 168.97
  A 0.30 0.30 0.0 0 0 312.90 169.27
  Z"
/>
<path fill="#f7ea24" d="
  M 377.75 175.23
  C 379.67 182.26 379.13 192.52 371.47 195.73
  C 364.67 198.58 357.25 195.43 355.15 188.04
  C 353.33 181.66 354.28 171.32 361.01 168.06
  C 367.77 164.78 375.72 167.77 377.75 175.23
  Z
  M 372.14 192.54
  C 378.69 187.43 377.92 170.49 368.25 169.26
  C 357.38 167.87 355.14 180.19 357.56 187.76
  C 359.58 194.07 367.05 196.51 372.14 192.54
  Z"
/>
<path fill="#eb552c" d="
  M 72.27 217.00
  C 75.23 212.53 69.14 211.53 69.17 207.50
  C 69.19 203.46 69.40 200.31 69.26 195.54
  C 69.11 190.15 73.59 186.55 76.95 183.03
  C 79.29 180.57 79.87 178.24 79.95 175.04
  A 0.87 0.86 11.7 0 1 81.14 174.26
  Q 85.53 176.04 90.33 176.79
  Q 106.60 179.31 123.08 178.91
  Q 131.28 178.71 139.09 176.82
  A 1.23 1.23 0.0 0 1 140.14 177.05
  Q 144.50 180.50 147.29 185.27
  C 149.64 189.29 150.21 194.38 153.90 198.77
  C 156.50 201.86 152.28 205.82 154.11 209.58
  C 155.74 212.93 158.38 218.49 162.50 218.38
  Q 167.81 218.25 172.32 217.69
  A 2.85 2.84 67.7 0 0 174.22 213.13
  C 171.82 210.00 169.05 206.64 168.58 202.55
  C 168.35 200.53 167.69 198.75 167.74 196.79
  C 167.91 190.31 169.15 179.45 175.00 175.35
  Q 175.44 175.04 175.72 174.57
  L 177.89 170.90
  Q 178.21 170.37 178.71 170.73
  C 183.32 174.10 191.68 176.78 196.57 172.42
  A 0.27 0.27 0.0 0 1 197.02 172.65
  Q 196.47 177.62 195.75 182.71
  C 191.33 214.11 168.42 235.61 136.75 237.95
  C 114.39 239.60 90.77 230.75 72.41 217.73
  Q 71.99 217.43 72.27 217.00
  Z"
/>
<path fill="#f7ea24" d="
  M 265.34 185.68
  A 0.91 0.91 0.0 0 1 266.25 184.76
  L 272.17 184.74
  A 8.95 5.91 -0.2 0 1 281.14 190.62
  L 281.14 191.14
  A 8.95 5.91 -0.2 0 1 272.21 197.08
  L 266.29 197.10
  A 0.91 0.91 0.0 0 1 265.38 196.20
  L 265.34 185.68
  Z
  M 267.77 187.92
  L 267.71 193.86
  A 0.71 0.71 0.0 0 0 268.42 194.58
  L 272.47 194.61
  A 6.12 3.23 0.5 0 0 278.62 191.44
  L 278.62 190.54
  A 6.12 3.23 0.5 0 0 272.53 187.25
  L 268.48 187.22
  A 0.71 0.71 0.0 0 0 267.77 187.92
  Z"
/>
<path fill="#f7ea24" d="
  M 310.50 185.54
  A 0.77 0.77 0.0 0 1 311.27 184.77
  L 317.47 184.77
  A 8.77 5.62 0.0 0 1 326.24 190.39
  L 326.24 191.45
  A 8.77 5.62 -0.0 0 1 317.47 197.07
  L 311.27 197.07
  A 0.77 0.77 0.0 0 1 310.50 196.30
  L 310.50 185.54
  Z
  M 312.89 187.84
  L 312.85 194.08
  A 0.60 0.60 0.0 0 0 313.44 194.69
  L 317.00 194.71
  A 6.74 3.19 0.4 0 0 323.77 191.57
  L 323.77 190.51
  A 6.74 3.19 0.4 0 0 317.06 187.27
  L 313.50 187.25
  A 0.60 0.60 0.0 0 0 312.89 187.84
  Z"
/>
</svg>
